<svg xmlns="http://www.w3.org/2000/svg" viewBox="0 0 1024 1024" width="1024" height="1024" role="img" aria-label="Louka Run">
  <title>Louka Run – znak</title>
  <defs>
    <linearGradient id="gold" x1="0" y1="0" x2="0" y2="1">
      <stop offset="0" stop-color="#ffe08a"/>
      <stop offset=".55" stop-color="#ffc23c"/>
      <stop offset="1" stop-color="#f0a01e"/>
    </linearGradient>
    <linearGradient id="cream" x1="0" y1="0" x2="0" y2="1">
      <stop offset="0" stop-color="#ffffff"/>
      <stop offset="1" stop-color="#fff6e4"/>
    </linearGradient>
    <linearGradient id="sky" x1="0" y1="0" x2="0" y2="1">
      <stop offset="0" stop-color="#6cc3f2"/>
      <stop offset="1" stop-color="#cdeafd"/>
    </linearGradient>
    <radialGradient id="sun">
      <stop offset="0" stop-color="#fff3b0"/>
      <stop offset=".6" stop-color="#ffe08a"/>
      <stop offset="1" stop-color="#ffe08a" stop-opacity="0"/>
    </radialGradient>
  </defs>
  <rect width="1024" height="1024" rx="230" fill="url(#sky)"/>
  <circle cx="822" cy="212" r="150" fill="url(#sun)" opacity=".85"/>
  <path d="M 0 690 Q 256 616 512 664 Q 768 712 1024 644 L 1024 1024 L 0 1024 Z" fill="#5aa84f"/>
  <path d="M 0 822 Q 256 766 512 806 Q 768 846 1024 788 L 1024 1024 L 0 1024 Z" fill="#3a682f" opacity=".45"/>
  <g transform="translate(392.0 512.0) scale(0.8800)" fill="#ffffff" opacity="0.92">
    <rect x="-230" y="-52" width="200" height="26" rx="13"/>
    <rect x="-180" y="-6"  width="250" height="26" rx="13"/>
    <rect x="-236" y="40"  width="164" height="26" rx="13"/>
  </g>
  <ellipse cx="505" cy="782" rx="176" ry="34" fill="#2c4f24" opacity=".2"/>
  <g transform="translate(505.0 462.0) rotate(18) scale(1.5500)">
    <!-- nať: tři špičaté lístky jako ve znaku Nech mě růst -->
    <path d="M 0.0 -66.0 Q -77.0 -119.0 -94.0 -172.0 Q -17.0 -119.0 0.0 -66.0 Z" fill="#4f9c46"/>
    <path d="M 0.0 -66.0 Q 17.0 -119.0 94.0 -172.0 Q 77.0 -119.0 0.0 -66.0 Z" fill="#4f9c46"/>
    <path d="M 0.0 -72.0 Q -34.0 -145.0 0.0 -218.0 Q 34.0 -145.0 0.0 -72.0 Z" fill="#6fbf5f"/>
    <!-- kořen -->
    <path d="M -64 -68 Q 0 -110 64 -68 C 52 16 26 100 9 140 Q 0 158 -9 140 C -26 100 -52 16 -64 -68 Z" fill="#ff9d3a"/>
    <path d="M 16 -84 Q 46 -80 64 -68 C 52 16 26 100 9 140 Q 3 150 -2 146 Z" fill="#e8791c" opacity=".5"/>
    <g fill="#e8791c" opacity=".7">
      <rect x="-46" y="-34" width="32" height="9" rx="4.5" transform="rotate(14 -30 -29)"/>
      <rect x="6" y="4" width="30" height="9" rx="4.5" transform="rotate(14 21 8)"/>
      <rect x="-32" y="44" width="26" height="8" rx="4" transform="rotate(14 -19 48)"/>
    </g>
  </g>
</svg>
